<svg xmlns="http://www.w3.org/2000/svg" viewBox="0 0 563.73 744.16"><defs><style>.cls-1,.cls-2,.cls-3{fill:#fff;}.cls-2{fill-rule:evenodd;}.cls-3{font-size:83.79px;font-family:ChaparralPro-Italic, Chaparral Pro;font-style:italic;letter-spacing:0.02em;}.cls-4{letter-spacing:0.02em;}.cls-5{letter-spacing:0.02em;}</style></defs><title>Recurso 1</title><g id="Capa_2" data-name="Capa 2"><g id="Capa_1-2" data-name="Capa 1"><path class="cls-1" d="M69.81,240.21l0,6-35.55.09-.13-52.27,35.1-.09,0,6-28.6.07,0,15.76,23-.06,0,5.9-23,.06,0,18.52Z"/><path class="cls-1" d="M127.77,240.06l0,6-34.35.09-.13-52.27,6.5,0,.12,46.22Z"/><path class="cls-1" d="M83,328.95,48.79,329,43.3,340.66,28,340.7l33-69,9.45,0,33.35,68.82-15.26,0Zm-6-12.88L66.71,294.44,65.82,292l-.88,2.46L54.76,316.12Z"/><path class="cls-1" d="M165.67,340.36,151,316.87h-.39l-10.43,0,.06,23.53-13.68,0-.17-68.91,24.12-.06c16.93,0,27.19,8.69,27.23,22.57,0,9.55-4.78,16.65-13.14,20.21l16.21,26Zm-25.49-36.26,12.2,0c7.68,0,11.11-4.65,11.1-10s-3.67-9.84-11.15-9.82l-12.2,0Z"/><path class="cls-1" d="M257.64,271.22l0,12.8-21.66.05.14,56.11-13.68,0-.14-56.11-21.46.05,0-12.8Z"/><path class="cls-1" d="M332.4,327.14l0,12.8-49.32.12-.17-68.91,48.73-.12,0,12.8-35,.09,0,14.67,27.76-.07,0,12.4-27.76.07,0,16.24Z"/><path class="cls-1" d="M65.91,366c19.69,0,35.67,14.09,35.72,34.76.05,20.28-15.67,34.1-35,34.15L36.94,435l-.17-68.91ZM66.65,427c14.18,0,26.16-9.91,26.12-26.15,0-16.54-12.08-26.84-26.84-26.81l-20.57.05.14,53Z"/><path class="cls-1" d="M177.7,426.69l0,8-46.86.12-.17-68.91,46.27-.12,0,8-37.7.1.05,20.77,30.32-.08,0,7.78-30.32.08.06,24.41Z"/><path class="cls-1" d="M309.22,426.36l0,8-45.28.11-.17-68.91,8.56,0,.15,60.93Z"/><path class="cls-1" d="M386.58,417.41l-38.79.1-8.33,16.75-9.45,0,34.28-69h5.51l34.63,68.82-9.45,0Zm-4-8-14.84-29.5-.7-2.07L366.4,380l-14.69,29.57Z"/><path class="cls-1" d="M84.8,480.91c-3.66-5.21-10.56-8.44-17.35-8.42-12.9,0-21.44,9.31-21.41,22.4,0,13.49,9.21,22.13,21.52,22.09,7.87,0,15.15-4.17,18.58-10.19l13.79,3.61c-5.68,12.22-17.87,20.22-32.34,20.26-19.79,0-35.77-15-35.82-35.74S47.64,459,67.42,459a35.37,35.37,0,0,1,31.35,18.13Z"/><path class="cls-1" d="M157,458.77c19.79-.05,35.87,15,35.92,35.74s-16,35.87-35.74,35.92-35.77-15-35.82-35.74S137.22,458.82,157,458.77Zm.15,58.18c12.7,0,21.53-9.21,21.5-22.4s-8.92-22.33-21.61-22.29-21.44,9.11-21.4,22.4S144.55,517,157.16,517Z"/><path class="cls-1" d="M270.67,480.44C267,475.23,260.12,472,253.32,472c-12.9,0-21.44,9.31-21.41,22.4,0,13.49,9.21,22.12,21.52,22.09,7.87,0,15.15-4.17,18.58-10.19l13.79,3.61c-5.68,12.22-17.87,20.22-32.34,20.26-19.79.05-35.77-15-35.82-35.74s15.86-35.87,35.65-35.92a35.37,35.37,0,0,1,31.35,18.13Z"/><path class="cls-1" d="M311.46,528.67l-.17-68.91,13.68,0,.17,68.91Z"/><path class="cls-1" d="M417.5,459.5l.17,68.91-12.9,0-32.39-42.05L371,484l.2,2.66.1,41.84-13.78,0-.17-68.91,12.9,0,32.39,41.56,1.39,2.46-.21-2.66-.1-41.44Z"/><path class="cls-1" d="M495.71,516.6l-34.26.09L456,528.31l-15.26,0,33-69,9.45,0,33.35,68.83-15.26,0Zm-6-12.88-10.29-21.63-.89-2.46-.88,2.46-10.18,21.68Z"/><path class="cls-1" d="M563.73,563.73H0V0H563.73ZM10.24,553.5H553.5V10.24H10.24Z"/><path class="cls-1" d="M449.22,673.91a4.89,4.89,0,1,0-4.9,4.88,4.89,4.89,0,0,0,4.9-4.88m-9.14,0a4.25,4.25,0,1,1,4.25,4.25,4.25,4.25,0,0,1-4.25-4.25"/><path class="cls-2" d="M442.11,676.68l-.2-5.45,2.42-.09a3.18,3.18,0,0,1,1.12.11,1.24,1.24,0,0,1,.62.5,1.55,1.55,0,0,1,.25.82,1.33,1.33,0,0,1-.35,1,1.84,1.84,0,0,1-1.14.55,2.15,2.15,0,0,1,.45.25,4.42,4.42,0,0,1,.62.71l1,1.45-.91,0-.76-1.11c-.22-.32-.41-.56-.55-.73a1.34,1.34,0,0,0-.39-.35,1,1,0,0,0-.33-.13,2.46,2.46,0,0,0-.4,0l-.84,0,.09,2.43Zm.61-3.07,1.56-.06a2.38,2.38,0,0,0,.77-.13.86.86,0,0,0,.42-.35.94.94,0,0,0,.12-.5.8.8,0,0,0-.3-.63,1.32,1.32,0,0,0-.89-.21l-1.73.06Z"/><rect class="cls-1" x="260.21" y="668.54" width="24.44" height="53.74"/><rect class="cls-1" x="292.21" y="639.53" width="24.47" height="83"/><polygon class="cls-2" points="325.25 640.05 348.68 640.05 349.19 686.98 359.28 668.28 386 668.28 368.38 694.29 386.73 722.64 359.74 722.64 348.93 703.32 348.68 722.54 325.25 722.54 325.25 640.05"/><path class="cls-1" d="M439.8,695.36c0-15.14-13-27.41-29-27.41s-29,12.28-29,27.41,13,27.42,29,27.42,29-12.27,29-27.42m-35.7,0a6.68,6.68,0,1,1,6.66,7.14,6.91,6.91,0,0,1-6.66-7.14"/><path class="cls-1" d="M259.21,651.39c0-6.4,5.91-11.58,13.23-11.58s13.23,5.19,13.23,11.58S279.73,663,272.43,663s-13.23-5.18-13.23-11.59"/><text class="cls-3" transform="translate(115.44 717.6)">p<tspan class="cls-4" x="41.48" y="0">o</tspan><tspan class="cls-5" x="80.02" y="0">r</tspan></text></g></g></svg>